<mxfile host="app.diagrams.net" modified="2023-10-18T17:25:26.972Z" agent="Mozilla/5.0 (Windows NT 10.0; Win64; x64) AppleWebKit/537.36 (KHTML, like Gecko) Chrome/118.0.0.0 Safari/537.36" etag="tQx4UmAYZLBvNNGsaTvl" version="22.0.4" type="github">
  <diagram id="C5RBs43oDa-KdzZeNtuy" name="Page-1">
    <mxGraphModel dx="1050" dy="566" grid="1" gridSize="10" guides="1" tooltips="1" connect="1" arrows="1" fold="1" page="1" pageScale="1" pageWidth="827" pageHeight="1169" math="0" shadow="0">
      <root>
        <mxCell id="WIyWlLk6GJQsqaUBKTNV-0" />
        <mxCell id="WIyWlLk6GJQsqaUBKTNV-1" parent="WIyWlLk6GJQsqaUBKTNV-0" />
        <mxCell id="zYWgFydTstjmVVX0C6Bd-14" value="" style="edgeStyle=orthogonalEdgeStyle;rounded=0;orthogonalLoop=1;jettySize=auto;html=1;" edge="1" parent="WIyWlLk6GJQsqaUBKTNV-1" source="zYWgFydTstjmVVX0C6Bd-8" target="zYWgFydTstjmVVX0C6Bd-10">
          <mxGeometry relative="1" as="geometry" />
        </mxCell>
        <mxCell id="zYWgFydTstjmVVX0C6Bd-8" value="Start" style="strokeWidth=2;html=1;shape=mxgraph.flowchart.terminator;whiteSpace=wrap;" vertex="1" parent="WIyWlLk6GJQsqaUBKTNV-1">
          <mxGeometry x="145" y="170" width="95" height="50" as="geometry" />
        </mxCell>
        <mxCell id="zYWgFydTstjmVVX0C6Bd-18" value="" style="edgeStyle=orthogonalEdgeStyle;rounded=0;orthogonalLoop=1;jettySize=auto;html=1;" edge="1" parent="WIyWlLk6GJQsqaUBKTNV-1" source="zYWgFydTstjmVVX0C6Bd-10" target="zYWgFydTstjmVVX0C6Bd-17">
          <mxGeometry relative="1" as="geometry" />
        </mxCell>
        <mxCell id="zYWgFydTstjmVVX0C6Bd-10" value="Tebak Angka" style="shape=parallelogram;html=1;strokeWidth=2;perimeter=parallelogramPerimeter;whiteSpace=wrap;rounded=1;arcSize=12;size=0.23;" vertex="1" parent="WIyWlLk6GJQsqaUBKTNV-1">
          <mxGeometry x="142.5" y="250" width="100" height="60" as="geometry" />
        </mxCell>
        <mxCell id="zYWgFydTstjmVVX0C6Bd-23" value="" style="edgeStyle=orthogonalEdgeStyle;rounded=0;orthogonalLoop=1;jettySize=auto;html=1;" edge="1" parent="WIyWlLk6GJQsqaUBKTNV-1" source="zYWgFydTstjmVVX0C6Bd-15" target="zYWgFydTstjmVVX0C6Bd-22">
          <mxGeometry relative="1" as="geometry" />
        </mxCell>
        <mxCell id="zYWgFydTstjmVVX0C6Bd-15" value="Tebakan&amp;gt;angka" style="rhombus;whiteSpace=wrap;html=1;rounded=1;arcSize=14;strokeWidth=2;" vertex="1" parent="WIyWlLk6GJQsqaUBKTNV-1">
          <mxGeometry x="390" y="322.5" width="100" height="95" as="geometry" />
        </mxCell>
        <mxCell id="zYWgFydTstjmVVX0C6Bd-20" value="" style="edgeStyle=orthogonalEdgeStyle;rounded=0;orthogonalLoop=1;jettySize=auto;html=1;" edge="1" parent="WIyWlLk6GJQsqaUBKTNV-1" source="zYWgFydTstjmVVX0C6Bd-17" target="zYWgFydTstjmVVX0C6Bd-19">
          <mxGeometry relative="1" as="geometry" />
        </mxCell>
        <mxCell id="zYWgFydTstjmVVX0C6Bd-17" value="Tebakan" style="shape=parallelogram;html=1;strokeWidth=2;perimeter=parallelogramPerimeter;whiteSpace=wrap;rounded=1;arcSize=12;size=0.23;" vertex="1" parent="WIyWlLk6GJQsqaUBKTNV-1">
          <mxGeometry x="142.5" y="340" width="100" height="60" as="geometry" />
        </mxCell>
        <mxCell id="zYWgFydTstjmVVX0C6Bd-21" value="" style="edgeStyle=orthogonalEdgeStyle;rounded=0;orthogonalLoop=1;jettySize=auto;html=1;" edge="1" parent="WIyWlLk6GJQsqaUBKTNV-1" source="zYWgFydTstjmVVX0C6Bd-19" target="zYWgFydTstjmVVX0C6Bd-15">
          <mxGeometry relative="1" as="geometry" />
        </mxCell>
        <mxCell id="zYWgFydTstjmVVX0C6Bd-27" value="" style="edgeStyle=orthogonalEdgeStyle;rounded=0;orthogonalLoop=1;jettySize=auto;html=1;" edge="1" parent="WIyWlLk6GJQsqaUBKTNV-1" source="zYWgFydTstjmVVX0C6Bd-19" target="zYWgFydTstjmVVX0C6Bd-26">
          <mxGeometry relative="1" as="geometry" />
        </mxCell>
        <mxCell id="zYWgFydTstjmVVX0C6Bd-19" value="Tebakan 1" style="rounded=1;whiteSpace=wrap;html=1;absoluteArcSize=1;arcSize=14;strokeWidth=2;" vertex="1" parent="WIyWlLk6GJQsqaUBKTNV-1">
          <mxGeometry x="280" y="340" width="60" height="60" as="geometry" />
        </mxCell>
        <mxCell id="zYWgFydTstjmVVX0C6Bd-25" value="" style="edgeStyle=orthogonalEdgeStyle;rounded=0;orthogonalLoop=1;jettySize=auto;html=1;" edge="1" parent="WIyWlLk6GJQsqaUBKTNV-1" source="zYWgFydTstjmVVX0C6Bd-22" target="zYWgFydTstjmVVX0C6Bd-24">
          <mxGeometry relative="1" as="geometry" />
        </mxCell>
        <mxCell id="zYWgFydTstjmVVX0C6Bd-22" value="Tebakan&amp;gt;angka" style="rhombus;whiteSpace=wrap;html=1;rounded=1;arcSize=14;strokeWidth=2;" vertex="1" parent="WIyWlLk6GJQsqaUBKTNV-1">
          <mxGeometry x="540" y="322.5" width="100" height="95" as="geometry" />
        </mxCell>
        <mxCell id="zYWgFydTstjmVVX0C6Bd-24" value="Tebakan&amp;lt;angka" style="rhombus;whiteSpace=wrap;html=1;rounded=1;arcSize=14;strokeWidth=2;" vertex="1" parent="WIyWlLk6GJQsqaUBKTNV-1">
          <mxGeometry x="680" y="322.5" width="100" height="95" as="geometry" />
        </mxCell>
        <mxCell id="zYWgFydTstjmVVX0C6Bd-29" value="" style="edgeStyle=orthogonalEdgeStyle;rounded=0;orthogonalLoop=1;jettySize=auto;html=1;" edge="1" parent="WIyWlLk6GJQsqaUBKTNV-1" source="zYWgFydTstjmVVX0C6Bd-26" target="zYWgFydTstjmVVX0C6Bd-28">
          <mxGeometry relative="1" as="geometry" />
        </mxCell>
        <mxCell id="zYWgFydTstjmVVX0C6Bd-35" value="" style="edgeStyle=orthogonalEdgeStyle;rounded=0;orthogonalLoop=1;jettySize=auto;html=1;" edge="1" parent="WIyWlLk6GJQsqaUBKTNV-1" source="zYWgFydTstjmVVX0C6Bd-26" target="zYWgFydTstjmVVX0C6Bd-34">
          <mxGeometry relative="1" as="geometry" />
        </mxCell>
        <mxCell id="zYWgFydTstjmVVX0C6Bd-26" value="Tebakan 2" style="rounded=1;whiteSpace=wrap;html=1;absoluteArcSize=1;arcSize=14;strokeWidth=2;" vertex="1" parent="WIyWlLk6GJQsqaUBKTNV-1">
          <mxGeometry x="280" y="440" width="60" height="60" as="geometry" />
        </mxCell>
        <mxCell id="zYWgFydTstjmVVX0C6Bd-31" value="" style="edgeStyle=orthogonalEdgeStyle;rounded=0;orthogonalLoop=1;jettySize=auto;html=1;" edge="1" parent="WIyWlLk6GJQsqaUBKTNV-1" source="zYWgFydTstjmVVX0C6Bd-28" target="zYWgFydTstjmVVX0C6Bd-30">
          <mxGeometry relative="1" as="geometry" />
        </mxCell>
        <mxCell id="zYWgFydTstjmVVX0C6Bd-28" value="Tebakan&amp;gt;angka" style="rhombus;whiteSpace=wrap;html=1;rounded=1;arcSize=14;strokeWidth=2;" vertex="1" parent="WIyWlLk6GJQsqaUBKTNV-1">
          <mxGeometry x="387.5" y="420" width="105" height="100" as="geometry" />
        </mxCell>
        <mxCell id="zYWgFydTstjmVVX0C6Bd-33" value="" style="edgeStyle=orthogonalEdgeStyle;rounded=0;orthogonalLoop=1;jettySize=auto;html=1;" edge="1" parent="WIyWlLk6GJQsqaUBKTNV-1" source="zYWgFydTstjmVVX0C6Bd-30" target="zYWgFydTstjmVVX0C6Bd-32">
          <mxGeometry relative="1" as="geometry" />
        </mxCell>
        <mxCell id="zYWgFydTstjmVVX0C6Bd-30" value="Tebakan&amp;gt;angka" style="rhombus;whiteSpace=wrap;html=1;rounded=1;arcSize=14;strokeWidth=2;" vertex="1" parent="WIyWlLk6GJQsqaUBKTNV-1">
          <mxGeometry x="537.5" y="420" width="105" height="100" as="geometry" />
        </mxCell>
        <mxCell id="zYWgFydTstjmVVX0C6Bd-32" value="Tebakan&amp;lt;angka" style="rhombus;whiteSpace=wrap;html=1;rounded=1;arcSize=14;strokeWidth=2;" vertex="1" parent="WIyWlLk6GJQsqaUBKTNV-1">
          <mxGeometry x="677.5" y="420" width="105" height="100" as="geometry" />
        </mxCell>
        <mxCell id="zYWgFydTstjmVVX0C6Bd-37" value="" style="edgeStyle=orthogonalEdgeStyle;rounded=0;orthogonalLoop=1;jettySize=auto;html=1;" edge="1" parent="WIyWlLk6GJQsqaUBKTNV-1" source="zYWgFydTstjmVVX0C6Bd-34" target="zYWgFydTstjmVVX0C6Bd-36">
          <mxGeometry relative="1" as="geometry" />
        </mxCell>
        <mxCell id="zYWgFydTstjmVVX0C6Bd-34" value="Tebakan 3" style="rounded=1;whiteSpace=wrap;html=1;absoluteArcSize=1;arcSize=14;strokeWidth=2;" vertex="1" parent="WIyWlLk6GJQsqaUBKTNV-1">
          <mxGeometry x="280" y="542.5" width="60" height="60" as="geometry" />
        </mxCell>
        <mxCell id="zYWgFydTstjmVVX0C6Bd-39" value="" style="edgeStyle=orthogonalEdgeStyle;rounded=0;orthogonalLoop=1;jettySize=auto;html=1;" edge="1" parent="WIyWlLk6GJQsqaUBKTNV-1" source="zYWgFydTstjmVVX0C6Bd-36" target="zYWgFydTstjmVVX0C6Bd-38">
          <mxGeometry relative="1" as="geometry" />
        </mxCell>
        <mxCell id="zYWgFydTstjmVVX0C6Bd-36" value="Tebakan&amp;gt;angka" style="rhombus;whiteSpace=wrap;html=1;rounded=1;arcSize=14;strokeWidth=2;" vertex="1" parent="WIyWlLk6GJQsqaUBKTNV-1">
          <mxGeometry x="387.5" y="525" width="105" height="95" as="geometry" />
        </mxCell>
        <mxCell id="zYWgFydTstjmVVX0C6Bd-43" value="" style="edgeStyle=orthogonalEdgeStyle;rounded=0;orthogonalLoop=1;jettySize=auto;html=1;" edge="1" parent="WIyWlLk6GJQsqaUBKTNV-1" source="zYWgFydTstjmVVX0C6Bd-38" target="zYWgFydTstjmVVX0C6Bd-42">
          <mxGeometry relative="1" as="geometry" />
        </mxCell>
        <mxCell id="zYWgFydTstjmVVX0C6Bd-38" value="Tebakan&amp;gt;angka" style="rhombus;whiteSpace=wrap;html=1;rounded=1;arcSize=14;strokeWidth=2;" vertex="1" parent="WIyWlLk6GJQsqaUBKTNV-1">
          <mxGeometry x="537.5" y="525" width="105" height="95" as="geometry" />
        </mxCell>
        <mxCell id="zYWgFydTstjmVVX0C6Bd-45" value="" style="edgeStyle=orthogonalEdgeStyle;rounded=0;orthogonalLoop=1;jettySize=auto;html=1;" edge="1" parent="WIyWlLk6GJQsqaUBKTNV-1" source="zYWgFydTstjmVVX0C6Bd-42" target="zYWgFydTstjmVVX0C6Bd-44">
          <mxGeometry relative="1" as="geometry" />
        </mxCell>
        <mxCell id="zYWgFydTstjmVVX0C6Bd-42" value="Tebakan=angka" style="rhombus;whiteSpace=wrap;html=1;rounded=1;arcSize=14;strokeWidth=2;" vertex="1" parent="WIyWlLk6GJQsqaUBKTNV-1">
          <mxGeometry x="677.5" y="525" width="105" height="95" as="geometry" />
        </mxCell>
        <mxCell id="zYWgFydTstjmVVX0C6Bd-44" value="End" style="strokeWidth=2;html=1;shape=mxgraph.flowchart.terminator;whiteSpace=wrap;" vertex="1" parent="WIyWlLk6GJQsqaUBKTNV-1">
          <mxGeometry x="680" y="650" width="100" height="60" as="geometry" />
        </mxCell>
      </root>
    </mxGraphModel>
  </diagram>
</mxfile>
